<svg width="136" height="30" viewBox="0 0 136 30" fill="none" xmlns="http://www.w3.org/2000/svg">
<path fill-rule="evenodd" clip-rule="evenodd" d="M0.966462 27.1069C1.18373 20.1474 6.45718 14.9211 13.0756 15.1277L19.7766 15.3369L19.7697 15.5597C19.6541 19.2605 16.5603 22.167 12.8594 22.0515C9.8775 21.9584 7.38083 24.4249 7.28294 27.5605L0.966462 27.1069Z" fill="#FEDC5A"/>
<path fill-rule="evenodd" clip-rule="evenodd" d="M1.24736 25.9964C1.48115 17.1989 8.49014 10.6453 17.5825 10.8869L18.7284 10.9174L17.4574 15.5949L19.8481 15.2597L19.4926 17.3139L17.4132 17.2587C11.9578 17.1137 7.42154 21.2753 7.28127 26.5538L7.25417 27.5733L0.877113 27.5734L1.24736 25.9964Z" fill="#FF9900"/>
<path fill-rule="evenodd" clip-rule="evenodd" d="M0.890686 25.5286C0.890686 16.3758 8.39951 8.95605 17.6621 8.95605L21.7582 8.95605L21.7582 11.489C21.7582 13.7512 19.9243 15.5851 17.6621 15.5851C12.1045 15.5851 7.59925 20.0369 7.59925 25.5286L7.59925 27.6498L0.890686 27.6498L0.890686 25.5286Z" fill="#FF3E80"/>
<path fill-rule="evenodd" clip-rule="evenodd" d="M0.890686 19.7035C0.890686 10.4061 8.39951 2.86914 17.6621 2.86914L18.8294 2.86914L17.7311 8.15843L21.7582 8.15843L21.7582 9.60287L17.6621 9.60287C12.1045 9.60287 7.59925 14.1251 7.59925 19.7035L7.59925 27.6493L0.890686 27.6493L0.890686 19.7035Z" fill="#D62460"/>
<path fill-rule="evenodd" clip-rule="evenodd" d="M0.891358 18.9279C0.891357 9.5789 8.40688 2 17.6778 2L26.541 2C26.541 5.73962 23.5094 8.77118 19.7698 8.77118L17.6778 8.77118C12.1152 8.77118 7.60591 13.3185 7.60591 18.9279L7.60591 27.4738C7.60591 28.869 6.47489 30 5.07969 30L3.41758 30C2.02239 30 0.891358 28.869 0.891358 27.4738L0.891358 18.9279Z" fill="#8759F2"/>
<path d="M40.565 29V2.756H56.513V6.824H44.957V14.168H55.001V18.272H44.957V29H40.565ZM62.8779 29H59.4579V0.883999H62.8779V29ZM66.15 21.512C66.15 20.408 66.366 19.364 66.798 18.38C67.23 17.372 67.806 16.496 68.526 15.752C69.27 15.008 70.122 14.42 71.082 13.988C72.066 13.532 73.098 13.304 74.178 13.304C74.898 13.304 75.546 13.4 76.122 13.592C76.698 13.76 77.19 13.964 77.598 14.204C78.03 14.444 78.366 14.696 78.606 14.96C78.846 15.2 79.002 15.392 79.074 15.536L79.218 13.7H82.566V29H79.074V27.992C79.074 27.872 79.074 27.764 79.074 27.668C79.098 27.548 79.11 27.464 79.11 27.416C79.014 27.536 78.846 27.716 78.606 27.956C78.366 28.172 78.042 28.388 77.634 28.604C77.226 28.82 76.734 29 76.158 29.144C75.606 29.312 74.958 29.396 74.214 29.396C73.038 29.396 71.958 29.18 70.974 28.748C69.99 28.316 69.138 27.74 68.418 27.02C67.698 26.3 67.134 25.472 66.726 24.536C66.342 23.576 66.15 22.568 66.15 21.512ZM69.642 21.296C69.642 21.968 69.75 22.592 69.966 23.168C70.206 23.744 70.53 24.248 70.938 24.68C71.37 25.088 71.874 25.412 72.45 25.652C73.026 25.892 73.662 26.012 74.358 26.012C75.054 26.012 75.69 25.892 76.266 25.652C76.842 25.412 77.334 25.076 77.742 24.644C78.174 24.212 78.498 23.708 78.714 23.132C78.954 22.556 79.074 21.944 79.074 21.296C79.074 20.648 78.954 20.048 78.714 19.496C78.498 18.92 78.174 18.428 77.742 18.02C77.334 17.612 76.842 17.288 76.266 17.048C75.69 16.808 75.054 16.688 74.358 16.688C73.662 16.688 73.026 16.808 72.45 17.048C71.874 17.264 71.37 17.588 70.938 18.02C70.53 18.428 70.206 18.92 69.966 19.496C69.75 20.048 69.642 20.648 69.642 21.296ZM86.8095 13.7H89.8335C89.8815 14.564 89.9295 15.272 89.9775 15.824C90.0495 16.352 90.1095 16.952 90.1575 17.624C90.7095 16.328 91.4895 15.284 92.4975 14.492C93.5055 13.7 94.7655 13.304 96.2775 13.304C97.8375 13.304 99.0735 13.736 99.9855 14.6C100.921 15.44 101.413 16.544 101.461 17.912V29H98.0415V19.532C97.9935 18.788 97.7295 18.152 97.2495 17.624C96.7695 17.072 96.0255 16.772 95.0175 16.724C94.3215 16.724 93.6735 16.856 93.0735 17.12C92.4975 17.36 91.9935 17.696 91.5615 18.128C91.1535 18.56 90.8295 19.076 90.5895 19.676C90.3735 20.276 90.2655 20.924 90.2655 21.62V29H86.8095V13.7ZM115.842 25.004C116.202 25.46 116.55 25.904 116.886 26.336C117.222 26.744 117.57 27.164 117.93 27.596C117.234 28.148 116.454 28.592 115.59 28.928C114.726 29.24 113.802 29.396 112.818 29.396C111.69 29.396 110.622 29.192 109.614 28.784C108.63 28.352 107.766 27.776 107.022 27.056C106.302 26.312 105.726 25.448 105.294 24.464C104.862 23.48 104.646 22.436 104.646 21.332C104.646 20.228 104.862 19.196 105.294 18.236C105.726 17.252 106.302 16.4 107.022 15.68C107.766 14.936 108.63 14.36 109.614 13.952C110.622 13.52 111.69 13.304 112.818 13.304C113.826 13.304 114.762 13.472 115.626 13.808C116.514 14.12 117.318 14.552 118.038 15.104L115.842 17.66C115.002 17.012 113.994 16.688 112.818 16.688C112.122 16.688 111.486 16.808 110.91 17.048C110.334 17.288 109.83 17.612 109.398 18.02C108.99 18.428 108.666 18.92 108.426 19.496C108.21 20.048 108.102 20.66 108.102 21.332C108.102 21.98 108.21 22.592 108.426 23.168C108.666 23.72 108.99 24.212 109.398 24.644C109.83 25.076 110.334 25.412 110.91 25.652C111.486 25.892 112.122 26.012 112.818 26.012C114.018 26.012 115.026 25.676 115.842 25.004ZM133.524 27.236C132.78 27.908 131.88 28.436 130.824 28.82C129.768 29.204 128.688 29.396 127.584 29.396C126.456 29.396 125.388 29.192 124.38 28.784C123.396 28.352 122.532 27.776 121.788 27.056C121.068 26.312 120.492 25.46 120.06 24.5C119.628 23.516 119.412 22.472 119.412 21.368C119.412 20.264 119.628 19.232 120.06 18.272C120.492 17.288 121.068 16.436 121.788 15.716C122.532 14.972 123.384 14.396 124.344 13.988C125.328 13.556 126.36 13.34 127.44 13.34C129.168 13.34 130.68 13.868 131.976 14.924C133.296 15.956 134.232 17.324 134.784 19.028C134.064 19.292 133.224 19.616 132.264 20C131.328 20.36 130.344 20.744 129.312 21.152C128.28 21.56 127.248 21.98 126.216 22.412C125.184 22.82 124.236 23.192 123.372 23.528C123.78 24.272 124.344 24.872 125.064 25.328C125.784 25.784 126.6 26.012 127.512 26.012C128.136 26.012 128.76 25.904 129.384 25.688C130.032 25.448 130.56 25.136 130.968 24.752L133.524 27.236ZM130.5 18.236C130.212 17.708 129.78 17.324 129.204 17.084C128.628 16.82 128.064 16.688 127.512 16.688C126.864 16.688 126.252 16.82 125.676 17.084C125.1 17.324 124.608 17.66 124.2 18.092C123.792 18.5 123.468 18.98 123.228 19.532C122.988 20.06 122.868 20.612 122.868 21.188V21.332C123.468 21.092 124.104 20.84 124.776 20.576C125.472 20.288 126.156 20 126.828 19.712C127.524 19.424 128.184 19.16 128.808 18.92C129.432 18.656 129.996 18.428 130.5 18.236Z" fill="#5454D4"/>
</svg>
